<svg width="256" height="256" viewBox="0 0 256 256" fill="none" xmlns="http://www.w3.org/2000/svg">
<path d="M65.1445 146.816H56.4085V158.048H38.9365V146.816H12.2485L10.2325 134.048L43.3525 97.184H56.4085V133.088H66.0085L65.1445 146.816ZM30.7765 133.088H38.9365V123.488L30.7765 133.088ZM92.5 96.416C100.308 96.416 105.62 98.176 108.436 101.696C111.252 105.152 112.66 108.864 112.66 112.832C112.66 116.992 111.732 120.896 109.876 124.544C108.02 128.128 104.884 131.84 100.468 135.68L97.492 138.272H113.236L114.868 152H72.724V140.48L89.044 126.08C91.924 123.52 93.972 121.28 95.188 119.36C96.404 117.44 97.044 115.808 97.108 114.464C97.108 113.312 96.628 112.384 95.668 111.68C94.708 110.976 93.396 110.624 91.732 110.624C89.492 110.624 87.22 111.264 84.916 112.544C82.612 113.824 80.564 115.072 78.772 116.288L71.38 104.768C73.556 102.976 76.468 101.152 80.116 99.296C83.828 97.376 87.956 96.416 92.5 96.416ZM141.214 119.648C141.214 120.096 141.438 120.48 141.886 120.8C142.398 121.056 143.486 121.472 145.15 122.048C148.99 123.392 152.67 125.248 156.19 127.616C159.71 129.92 161.47 133.216 161.47 137.504C161.47 142.368 159.838 146.176 156.574 148.928C153.374 151.68 148.542 153.056 142.078 153.056C140.158 153.056 137.022 152.512 132.67 151.424C128.382 150.336 124.894 148.736 122.206 146.624L127.102 134.624C128.958 135.584 131.198 136.544 133.822 137.504C136.51 138.4 138.686 138.848 140.35 138.848C141.374 138.848 142.142 138.656 142.654 138.272C143.166 137.888 143.422 137.536 143.422 137.216C143.422 136.768 143.166 136.384 142.654 136.064C142.142 135.68 141.182 135.264 139.774 134.816C135.934 133.472 132.19 131.648 128.542 129.344C124.958 126.976 123.166 123.648 123.166 119.36C123.166 114.496 124.99 110.688 128.638 107.936C132.286 105.184 137.342 103.808 143.806 103.808C145.726 103.808 148.446 104.288 151.966 105.248C155.55 106.144 158.686 107.648 161.374 109.76L156.478 121.76C154.622 120.8 152.67 119.936 150.622 119.168C148.574 118.4 146.718 118.016 145.054 118.016C143.646 118.016 142.654 118.208 142.078 118.592C141.502 118.976 141.214 119.328 141.214 119.648ZM167.005 128.48C167.005 120.672 169.565 114.624 174.685 110.336C179.869 105.984 186.109 103.808 193.405 103.808C201.085 103.808 207.389 105.92 212.317 110.144C217.309 114.368 219.805 120.64 219.805 128.96C219.805 136.768 217.213 142.752 212.029 146.912C206.845 151.008 200.509 153.056 193.021 153.056C185.533 153.056 179.325 151.04 174.397 147.008C169.469 142.976 167.005 136.8 167.005 128.48ZM185.053 128.48C185.053 131.616 185.757 134.144 187.165 136.064C188.573 137.92 190.589 138.848 193.213 138.848C195.965 138.848 198.077 138.016 199.549 136.352C201.021 134.688 201.757 132.224 201.757 128.96C201.757 125.824 201.053 123.232 199.645 121.184C198.237 119.072 196.221 118.016 193.597 118.016C190.845 118.016 188.733 118.944 187.261 120.8C185.789 122.656 185.053 125.216 185.053 128.48ZM228.479 152V85.28L245.951 84.224V152H228.479Z" fill="#35495E"/>
<path d="M63.1445 152.816H54.4085V164.048H36.9365V152.816H10.2485L8.2325 140.048L41.3525 103.184H54.4085V139.088H64.0085L63.1445 152.816ZM28.7765 139.088H36.9365V129.488L28.7765 139.088ZM90.5 102.416C98.308 102.416 103.62 104.176 106.436 107.696C109.252 111.152 110.66 114.864 110.66 118.832C110.66 122.992 109.732 126.896 107.876 130.544C106.02 134.128 102.884 137.84 98.468 141.68L95.492 144.272H111.236L112.868 158H70.724V146.48L87.044 132.08C89.924 129.52 91.972 127.28 93.188 125.36C94.404 123.44 95.044 121.808 95.108 120.464C95.108 119.312 94.628 118.384 93.668 117.68C92.708 116.976 91.396 116.624 89.732 116.624C87.492 116.624 85.22 117.264 82.916 118.544C80.612 119.824 78.564 121.072 76.772 122.288L69.38 110.768C71.556 108.976 74.468 107.152 78.116 105.296C81.828 103.376 85.956 102.416 90.5 102.416ZM139.214 125.648C139.214 126.096 139.438 126.48 139.886 126.8C140.398 127.056 141.486 127.472 143.15 128.048C146.99 129.392 150.67 131.248 154.19 133.616C157.71 135.92 159.47 139.216 159.47 143.504C159.47 148.368 157.838 152.176 154.574 154.928C151.374 157.68 146.542 159.056 140.078 159.056C138.158 159.056 135.022 158.512 130.67 157.424C126.382 156.336 122.894 154.736 120.206 152.624L125.102 140.624C126.958 141.584 129.198 142.544 131.822 143.504C134.51 144.4 136.686 144.848 138.35 144.848C139.374 144.848 140.142 144.656 140.654 144.272C141.166 143.888 141.422 143.536 141.422 143.216C141.422 142.768 141.166 142.384 140.654 142.064C140.142 141.68 139.182 141.264 137.774 140.816C133.934 139.472 130.19 137.648 126.542 135.344C122.958 132.976 121.166 129.648 121.166 125.36C121.166 120.496 122.99 116.688 126.638 113.936C130.286 111.184 135.342 109.808 141.806 109.808C143.726 109.808 146.446 110.288 149.966 111.248C153.55 112.144 156.686 113.648 159.374 115.76L154.478 127.76C152.622 126.8 150.67 125.936 148.622 125.168C146.574 124.4 144.718 124.016 143.054 124.016C141.646 124.016 140.654 124.208 140.078 124.592C139.502 124.976 139.214 125.328 139.214 125.648ZM165.005 134.48C165.005 126.672 167.565 120.624 172.685 116.336C177.869 111.984 184.109 109.808 191.405 109.808C199.085 109.808 205.389 111.92 210.317 116.144C215.309 120.368 217.805 126.64 217.805 134.96C217.805 142.768 215.213 148.752 210.029 152.912C204.845 157.008 198.509 159.056 191.021 159.056C183.533 159.056 177.325 157.04 172.397 153.008C167.469 148.976 165.005 142.8 165.005 134.48ZM183.053 134.48C183.053 137.616 183.757 140.144 185.165 142.064C186.573 143.92 188.589 144.848 191.213 144.848C193.965 144.848 196.077 144.016 197.549 142.352C199.021 140.688 199.757 138.224 199.757 134.96C199.757 131.824 199.053 129.232 197.645 127.184C196.237 125.072 194.221 124.016 191.597 124.016C188.845 124.016 186.733 124.944 185.261 126.8C183.789 128.656 183.053 131.216 183.053 134.48ZM226.479 158V91.28L243.951 90.224V158H226.479Z" fill="#41B883"/>
<path d="M68.3831 185.12V191.888C68.3831 192.795 68.6017 193.456 69.0391 193.872C69.4764 194.277 70.0417 194.48 70.7351 194.48C71.4391 194.48 72.0044 194.267 72.4311 193.84C72.8684 193.413 73.0871 192.763 73.0871 191.888V185.12H75.1831V192.048C75.1831 193.221 74.7777 194.203 73.9671 194.992C73.1671 195.781 72.0791 196.176 70.7031 196.176C69.3484 196.176 68.2711 195.781 67.4711 194.992C66.6817 194.203 66.2871 193.221 66.2871 192.048V185.12H68.3831ZM79.8533 185.12V196H77.7893V185.12H79.8533ZM88.1446 184.704V196H86.0806V184.88L88.1446 184.704ZM91.2586 184.8C91.5892 184.8 91.8666 184.912 92.0906 185.136C92.3252 185.36 92.4426 185.637 92.4426 185.968C92.4426 186.299 92.3252 186.576 92.0906 186.8C91.8666 187.024 91.5892 187.136 91.2586 187.136C90.9386 187.136 90.6666 187.024 90.4426 186.8C90.2186 186.576 90.1066 186.299 90.1066 185.968C90.1066 185.637 90.2186 185.36 90.4426 185.136C90.6666 184.912 90.9386 184.8 91.2586 184.8ZM92.2986 188.24V196H90.2186V188.24H92.2986ZM96.4883 184.704V188.48C96.7976 188.309 97.123 188.176 97.4643 188.08C97.8163 187.984 98.131 187.936 98.4083 187.936C99.5496 187.936 100.424 188.331 101.032 189.12C101.64 189.909 101.944 190.891 101.944 192.064C101.944 193.237 101.63 194.219 101 195.008C100.382 195.797 99.5176 196.192 98.4083 196.192C98.0456 196.192 97.6403 196.117 97.1923 195.968C96.7443 195.819 96.3443 195.611 95.9923 195.344L95.4803 196H94.4243V184.88L96.4883 184.704ZM97.8643 194.416C98.579 194.416 99.0803 194.16 99.3683 193.648C99.6563 193.125 99.8003 192.597 99.8003 192.064C99.8003 191.456 99.6723 190.912 99.4163 190.432C99.1603 189.952 98.643 189.712 97.8643 189.712C97.6403 189.712 97.4056 189.755 97.1603 189.84C96.9256 189.915 96.7016 190.021 96.4883 190.16V193.968C96.7016 194.096 96.9256 194.203 97.1603 194.288C97.4056 194.373 97.6403 194.416 97.8643 194.416ZM107.865 188.24L108.281 189.904C107.929 189.904 107.519 190.005 107.049 190.208C106.591 190.411 106.137 190.709 105.689 191.104V196H103.609V188.24H104.697L105.385 189.376C105.705 189.099 106.095 188.843 106.553 188.608C107.012 188.363 107.449 188.24 107.865 188.24ZM110.896 193.68C110.896 193.904 110.986 194.107 111.168 194.288C111.349 194.459 111.589 194.544 111.888 194.544C112.176 194.544 112.464 194.48 112.752 194.352C113.05 194.224 113.333 194.032 113.6 193.776V192.592H112.032C111.669 192.592 111.386 192.704 111.184 192.928C110.992 193.152 110.896 193.403 110.896 193.68ZM111.92 196.192C110.97 196.192 110.266 195.963 109.808 195.504C109.349 195.035 109.12 194.427 109.12 193.68C109.12 192.88 109.392 192.267 109.936 191.84C110.48 191.413 111.189 191.2 112.064 191.2H113.584C113.573 190.805 113.456 190.501 113.232 190.288C113.018 190.064 112.72 189.952 112.336 189.952C111.973 189.952 111.578 190.005 111.152 190.112C110.725 190.208 110.368 190.325 110.08 190.464L109.52 188.736C109.818 188.533 110.272 188.368 110.88 188.24C111.498 188.101 111.973 188.032 112.304 188.032C113.232 188.032 114.026 188.304 114.688 188.848C115.349 189.381 115.68 190.064 115.68 190.896V196H114.608L114.096 195.344C113.808 195.568 113.466 195.765 113.072 195.936C112.688 196.107 112.304 196.192 111.92 196.192ZM121.85 188.24L122.266 189.904C121.914 189.904 121.503 190.005 121.034 190.208C120.575 190.411 120.122 190.709 119.674 191.104V196H117.594V188.24H118.682L119.37 189.376C119.69 189.099 120.079 188.843 120.538 188.608C120.996 188.363 121.434 188.24 121.85 188.24ZM124.832 196.368L125.2 195.456L122.432 188.528L124.576 188.24L126.368 192.944L128.064 188.24H130.256L126.784 197.024C126.539 197.653 126.107 198.192 125.488 198.64C124.869 199.088 124.219 199.392 123.536 199.552L122.8 197.84C123.173 197.68 123.568 197.483 123.984 197.248C124.411 197.024 124.693 196.731 124.832 196.368ZM135.413 187.664C135.413 186.768 135.675 186.064 136.197 185.552C136.731 185.029 137.477 184.768 138.437 184.768C138.683 184.768 138.96 184.816 139.269 184.912C139.579 185.008 139.819 185.125 139.989 185.264L139.397 186.768C139.237 186.704 139.083 186.656 138.933 186.624C138.795 186.581 138.661 186.56 138.533 186.56C138.171 186.56 137.904 186.693 137.733 186.96C137.573 187.216 137.493 187.547 137.493 187.952V188.4H138.965L139.621 190.016H137.493V196H135.413V190.016H134.213V188.4H135.413V187.664ZM144.646 196.192C143.42 196.192 142.46 195.824 141.766 195.088C141.084 194.341 140.742 193.344 140.742 192.096C140.742 190.859 141.1 189.872 141.814 189.136C142.54 188.4 143.526 188.032 144.774 188.032C146.065 188.032 147.062 188.416 147.766 189.184C148.481 189.941 148.838 190.939 148.838 192.176C148.838 193.413 148.454 194.395 147.686 195.12C146.918 195.835 145.905 196.192 144.646 196.192ZM146.694 192.176C146.694 191.44 146.529 190.864 146.198 190.448C145.878 190.021 145.42 189.808 144.822 189.808C144.214 189.808 143.74 189.995 143.398 190.368C143.057 190.741 142.886 191.312 142.886 192.08C142.886 192.848 143.03 193.429 143.318 193.824C143.617 194.219 144.07 194.416 144.678 194.416C145.276 194.416 145.761 194.24 146.134 193.888C146.508 193.525 146.694 192.955 146.694 192.176ZM154.756 188.24L155.172 189.904C154.82 189.904 154.409 190.005 153.94 190.208C153.481 190.411 153.028 190.709 152.58 191.104V196H150.5V188.24H151.588L152.276 189.376C152.596 189.099 152.985 188.843 153.444 188.608C153.902 188.363 154.34 188.24 154.756 188.24ZM163.343 196L159.119 185.408L161.167 185.12L164.255 193.168L167.247 185.12H169.343L165.103 196H163.343ZM175.957 195.232C175.605 195.563 175.173 195.824 174.661 196.016C174.149 196.219 173.685 196.32 173.269 196.32C172.213 196.32 171.461 196.011 171.013 195.392C170.576 194.763 170.357 194.005 170.357 193.12V188.24H172.453V193.024C172.453 193.515 172.571 193.893 172.805 194.16C173.04 194.416 173.381 194.544 173.829 194.544C174.107 194.544 174.4 194.475 174.709 194.336C175.019 194.197 175.301 194.037 175.557 193.856V188.24H177.637V196H176.549L175.957 195.232ZM183.656 196.192C182.312 196.192 181.251 195.824 180.472 195.088C179.704 194.352 179.32 193.365 179.32 192.128C179.32 190.891 179.667 189.899 180.36 189.152C181.064 188.405 182.019 188.032 183.224 188.032C184.44 188.032 185.331 188.437 185.896 189.248C186.472 190.048 186.76 190.997 186.76 192.096V192.736H181.528C181.624 193.248 181.859 193.659 182.232 193.968C182.606 194.267 183.096 194.416 183.704 194.416C184.056 194.416 184.371 194.373 184.648 194.288C184.936 194.192 185.267 194.059 185.64 193.888L186.248 195.392C185.886 195.669 185.443 195.872 184.92 196C184.408 196.128 183.987 196.192 183.656 196.192ZM184.792 191.344C184.686 190.821 184.494 190.437 184.216 190.192C183.939 189.936 183.592 189.808 183.176 189.808C182.75 189.808 182.392 189.941 182.104 190.208C181.816 190.464 181.63 190.843 181.544 191.344H184.792ZM191.415 186.736C192.535 186.736 193.373 187.013 193.927 187.568C194.493 188.123 194.775 188.773 194.775 189.52C194.775 190.011 194.637 190.453 194.359 190.848C194.082 191.232 193.789 191.493 193.479 191.632C193.778 191.707 194.098 191.968 194.439 192.416C194.791 192.853 194.967 193.403 194.967 194.064C194.967 194.949 194.626 195.696 193.943 196.304C193.261 196.912 192.343 197.216 191.191 197.216C190.605 197.216 189.997 197.109 189.367 196.896C188.749 196.693 188.194 196.464 187.703 196.208L188.759 194.816C189.186 195.072 189.586 195.259 189.959 195.376C190.333 195.483 190.754 195.536 191.223 195.536C191.693 195.536 192.114 195.408 192.487 195.152C192.871 194.896 193.063 194.539 193.063 194.08C193.063 193.589 192.871 193.2 192.487 192.912C192.114 192.624 191.506 192.48 190.663 192.48H189.991L189.703 190.864H190.759C191.41 190.864 191.922 190.747 192.295 190.512C192.679 190.267 192.871 189.947 192.871 189.552C192.871 189.243 192.733 188.976 192.455 188.752C192.189 188.528 191.826 188.416 191.367 188.416C190.887 188.416 190.439 188.507 190.023 188.688C189.618 188.859 189.271 189.045 188.983 189.248L188.007 187.856C188.53 187.515 189.069 187.243 189.623 187.04C190.178 186.837 190.775 186.736 191.415 186.736Z" fill="#35495E"/>
<rect x="0.5" y="0.5" width="255" height="255" stroke="#5C5C5C"/>
</svg>
